<svg viewBox="0 0 156 156" fill="none" xmlns="http://www.w3.org/2000/svg"><path d="M7 58C7 29.281 30.281 6 59 6h38c28.719 0 52 23.281 52 52v40c0 28.719-23.281 52-52 52H59c-28.719 0-52-23.281-52-52V58z" fill="#000"/><path d="M38.39.03c-6.246.626-10.71 1.876-15.693 4.407-4.099 2.089-7.085 4.285-10.529 7.7C6.119 18.175 2.203 25.57.695 33.85c-.732 3.934-.732 3.766-.67 45.53.06 43.486-.016 39.796.974 44.37 3.368 15.385 15.862 27.873 31.343 31.319 4.449.991 1.066.93 45.665.93 38.199 0 40.545-.015 42.206-.274 9.614-1.51 17.537-5.52 23.998-12.183 6.262-6.419 9.858-13.693 11.458-23.146.244-1.494.274-4.087.32-41.093.031-28.132 0-40.055-.122-41.473-.67-7.777-3.474-15.065-8.289-21.5-1.752-2.333-5.546-6.144-7.862-7.883-5.79-4.36-11.732-6.876-19.122-8.096l-1.981-.336L78.769 0C56.858 0 38.68.015 38.39.03zM82.96 23.375c.761.091 1.813.244 2.361.35.549.092 1.372.244 1.829.32.457.092 1.417.29 2.133.473.716.168 1.463.336 1.676.381.213.031.518.122.686.183.167.061.93.305 1.676.55.762.228 1.508.472 1.676.533 3.565 1.418 8.121 3.644 8.929 4.36.121.123.289.214.35.214.107 0 2.545 1.632 3.139 2.09.122.106.762.594 1.432 1.097a70.437 70.437 0 012.362 1.967c.64.58 1.432 1.28 1.752 1.57.625.55 3.581 3.828 4.586 5.093.336.412.64.793.686.839.411.381 3.23 4.635 4.16 6.236.701 1.22 2.361 4.575 2.758 5.58.579 1.434.64 1.587.914 2.212.244.594 1.173 3.354 1.463 4.422.091.38.274.96.38 1.296.107.335.275 1.021.381 1.524.092.504.229 1.16.305 1.45.168.64.442 2.18.625 3.43.884 6.13.594 15.385-.625 20.203-.076.29-.213.945-.305 1.448-.106.504-.274 1.19-.381 1.525-.106.336-.289.915-.38 1.296-.26.915-1.204 3.812-1.372 4.194-.076.167-.228.548-.35.838-.122.29-.412 1.006-.655 1.601l-.458 1.067-8.365.031c-4.616.03-8.471.046-8.563.046-.152 0-.198 1.646-.198 7.7v7.7l7.741.03 7.725.046.045 7.731.031 7.746h-15.542v-15.553H92.482v15.553l-8.792-.046c-8.944-.046-9.538-.076-13.606-.732-.458-.061-1.113-.168-1.448-.214a11.868 11.868 0 01-1.371-.305c-.412-.106-1.052-.289-1.402-.365-1.752-.443-4.678-1.373-5.684-1.8-.289-.122-.67-.289-.838-.35a42.896 42.896 0 01-3.58-1.662c-2.453-1.251-2.789-1.434-3.307-1.815-.259-.183-.518-.335-.563-.335-.137 0-3.87-2.608-4.678-3.279-1.432-1.174-2.057-1.707-2.85-2.439-.456-.427-.96-.854-1.096-.946-.336-.228-3.81-4.086-4.648-5.153a16.099 16.099 0 00-.7-.839c-.351-.32-3.23-4.65-4.145-6.236-.7-1.235-2.362-4.59-2.758-5.581-.594-1.479-.655-1.6-.914-2.21-.244-.596-1.173-3.355-1.463-4.423a22.06 22.06 0 00-.38-1.296 20.096 20.096 0 01-.382-1.525 24.841 24.841 0 00-.304-1.448c-1.22-4.818-1.509-14.165-.625-20.203.32-2.165.99-5.352 1.463-6.938.152-.457.29-1.006.335-1.22.03-.213.122-.518.198-.686.076-.168.305-.854.533-1.525.213-.67.457-1.357.533-1.524.061-.168.412-1.022.777-1.906 1.783-4.392 4.724-9.347 7.74-13.113 2.713-3.37 7.101-7.624 9.768-9.454.29-.198.563-.412.61-.457.106-.153 3.488-2.364 4.19-2.745.334-.198 1.112-.61 1.721-.945.625-.32 1.234-.656 1.371-.732.244-.137 2.332-1.083 3.002-1.357.26-.122.747-.305 1.98-.778.169-.06.93-.305 1.677-.534a87.294 87.294 0 001.676-.549 4.07 4.07 0 01.686-.183c.213-.045.96-.213 1.676-.38a47.376 47.376 0 012.133-.473c.457-.077 1.417-.26 2.133-.382a17.012 17.012 0 012.133-.259c.457 0 .975-.06 1.143-.137.396-.183 6.765-.091 8.533.107z" fill="#fff"/><path d="M73.817 38.089c-.412.076-1.098.198-1.524.29-.412.091-1.036.198-1.372.243-.335.046-.67.138-.746.214-.092.076-.35.137-.58.137-.243 0-.548.061-.7.137-.137.077-.64.244-1.097.397-.457.137-.975.305-1.143.381-2.681 1.113-4.693 2.165-6.552 3.4-2.21 1.48-2.986 2.104-5.013 4.071-3.184 3.08-5.637 6.48-7.618 10.49-.61 1.236-1.204 2.486-1.295 2.776-.107.29-.26.67-.32.839-.076.167-.244.64-.381 1.067-.152.412-.32.9-.381 1.067a3.007 3.007 0 00-.198.686c-.046.214-.213.854-.366 1.449-.96 3.43-1.417 6.999-1.417 10.902 0 2.775.092 3.842.686 7.929.137.869.396 2.165.61 2.897l.38 1.372c1.143 4.056 2.712 7.563 5.074 11.36 2.986 4.803 8.015 9.728 12.753 12.488.717.411 3.962 2.027 4.495 2.226.168.061.518.198.762.305.518.198 1.34.472 2.362.762.38.107.99.275 1.371.381 2.286.656 3.55.732 12.266.747l8.228.016.046-7.67.03-7.654h7.435c5.592-.016 7.482-.061 7.665-.199.426-.32 3.184-5.214 3.184-5.641 0-.061.168-.458.366-.9.32-.716.945-2.378 1.31-3.476.107-.336.381-1.296.762-2.669.076-.259.198-.838.29-1.296.091-.457.228-1.189.32-1.6.563-2.837.807-9.058.457-11.97-.336-2.653-.777-5.062-1.25-6.785-.167-.595-.35-1.281-.426-1.525a8.675 8.675 0 00-.351-1.068c-.122-.335-.366-.99-.533-1.448-1.57-4.254-3.535-7.822-6.262-11.36-1.341-1.738-4.13-4.635-5.73-5.977-1.066-.884-3.946-2.943-4.114-2.943-.076 0-.335-.167-.594-.35-.259-.198-1.356-.793-2.453-1.312-1.082-.518-2.103-1.006-2.24-1.097a1.455 1.455 0 00-.548-.137c-.153 0-.335-.061-.412-.138-.396-.366-4.51-1.402-7.252-1.845-1.204-.183-6.903-.167-7.984.03zM92.1 101.717H76.71l-.045-7.745-.03-7.731 7.724.03 7.74.046v15.4z" fill="#fff"/></svg>