<svg viewBox="0 0 156 156" fill="none" version="1.1" xmlns="http://www.w3.org/2000/svg" xmlns:svg="http://www.w3.org/2000/svg"><path fill="#111111" d="m 107.82299,124.93263 v -7.58635 h 7.58635 7.58635 v 7.58635 7.58635 h -7.58635 -7.58635 z M 92.327473,109.43711 v -7.58635 h 7.586348 7.586349 v 7.58635 7.58635 H 99.913821 92.327473 Z M 76.831953,93.94159 v -7.586349 h 7.586348 7.586349 v 7.586349 7.58635 h -7.586349 -7.586348 z m -5.288237,38.07646 C 64.693092,131.08514 56.126444,127.80536 50.521851,123.96973 34.251964,112.83508 25.251838,93.758552 26.769602,73.624826 27.767606,60.385899 32.986297,48.495413 41.888261,39.177832 49.664992,31.03802 59.310749,25.909691 70.40669,24.015528 c 5.090037,-0.868908 12.58305,-0.724288 17.401256,0.335855 20.647174,4.542969 35.834084,20.304202 40.763974,42.30554 0.60125,2.683263 0.68938,4.096286 0.69503,11.1435 0.006,7.209291 -0.0721,8.432326 -0.72948,11.460228 -0.70408,3.242816 -2.32611,8.485386 -3.4209,11.056699 l -0.51543,1.21059 h -8.38907 c -4.61399,0 -8.38908,-0.0649 -8.38908,-0.14412 0,-0.0793 0.53633,-1.05921 1.19183,-2.177666 5.53382,-9.442011 6.80719,-23.490563 3.12493,-34.476015 C 109.361,56.440126 103.61657,48.431435 97.333804,44.088162 93.832527,41.667729 88.844797,39.406126 85.168262,38.571898 80.960505,37.617131 73.217968,37.755086 69.297511,38.85468 c -5.32078,1.49235 -10.430366,4.541479 -14.631393,8.731234 -18.0854,18.03688 -14.684048,50.583677 6.740232,64.495816 2.733397,1.77497 5.780388,3.14806 9.29196,4.18733 2.574238,0.76185 3.328176,0.82318 12.186581,0.99136 l 9.442582,0.17928 v 7.53964 7.53964 l -8.796936,-0.0333 c -5.382617,-0.0204 -10.035012,-0.20186 -11.986821,-0.46766 z" /></svg>