<svg width="47" height="48" viewBox="0 0 47 48" fill="none" xmlns="http://www.w3.org/2000/svg">
<path d="M4.125 21.5898H17.9678C20.1562 21.5898 21.3691 20.6143 21.3691 18.1885V4.37207C21.3691 1.94629 20.1562 0.970703 17.9678 0.970703H4.125C1.93652 0.970703 0.723633 1.94629 0.723633 4.37207V18.1885C0.723633 20.6143 1.93652 21.5898 4.125 21.5898ZM29.6221 21.5898H43.4385C45.6533 21.5898 46.8662 20.6143 46.8662 18.1885V4.37207C46.8662 1.94629 45.6533 0.970703 43.4385 0.970703H29.6221C27.4072 0.970703 26.2207 1.94629 26.2207 4.37207V18.1885C26.2207 20.6143 27.4072 21.5898 29.6221 21.5898ZM4.2041 20.2979C2.62207 20.2979 2.01562 19.6914 2.01562 18.1357V4.4248C2.01562 2.86914 2.62207 2.2627 4.2041 2.2627H17.8887C19.4443 2.2627 20.0508 2.86914 20.0508 4.4248V18.1357C20.0508 19.6914 19.4443 20.2979 17.8887 20.2979H4.2041ZM29.6748 20.2979C28.1191 20.2979 27.5127 19.6914 27.5127 18.1357V4.4248C27.5127 2.86914 28.1191 2.2627 29.6748 2.2627H43.3857C44.9414 2.2627 45.5479 2.86914 45.5479 4.4248V18.1357C45.5479 19.6914 44.9414 20.2979 43.3857 20.2979H29.6748ZM9.1084 13.6533H12.958C13.3008 13.6533 13.4326 13.5215 13.4326 13.126V9.4082C13.4326 9.03906 13.3008 8.90723 12.958 8.90723H9.1084C8.76562 8.90723 8.66016 9.03906 8.66016 9.4082V13.126C8.66016 13.5215 8.76562 13.6533 9.1084 13.6533ZM34.5791 13.6533H38.4551C38.7715 13.6533 38.9033 13.5215 38.9033 13.126V9.4082C38.9033 9.03906 38.7715 8.90723 38.4551 8.90723H34.5791C34.2627 8.90723 34.1572 9.03906 34.1572 9.4082V13.126C34.1572 13.5215 34.2627 13.6533 34.5791 13.6533ZM4.125 47.0869H17.9678C20.1562 47.0869 21.3691 46.085 21.3691 43.6855V29.8428C21.3691 27.4434 20.1562 26.4678 17.9678 26.4678H4.125C1.93652 26.4678 0.723633 27.4434 0.723633 29.8428V43.6855C0.723633 46.085 1.93652 47.0869 4.125 47.0869ZM27.5918 32.1631H31.4414C31.7842 32.1631 31.916 32.0312 31.916 31.6094V27.8916C31.916 27.5225 31.7842 27.3906 31.4414 27.3906H27.5918C27.249 27.3906 27.1436 27.5225 27.1436 27.8916V31.6094C27.1436 32.0312 27.249 32.1631 27.5918 32.1631ZM41.5928 32.1631H45.4424C45.7852 32.1631 45.917 32.0312 45.917 31.6094V27.8916C45.917 27.5225 45.7852 27.3906 45.4424 27.3906H41.5928C41.25 27.3906 41.1445 27.5225 41.1445 27.8916V31.6094C41.1445 32.0312 41.25 32.1631 41.5928 32.1631ZM4.2041 45.7949C2.62207 45.7949 2.01562 45.1885 2.01562 43.6328V29.9219C2.01562 28.3662 2.62207 27.7598 4.2041 27.7598H17.8887C19.4443 27.7598 20.0508 28.3662 20.0508 29.9219V43.6328C20.0508 45.1885 19.4443 45.7949 17.8887 45.7949H4.2041ZM9.1084 39.1504H12.958C13.3008 39.1504 13.4326 39.0186 13.4326 38.623V34.9053C13.4326 34.5361 13.3008 34.4043 12.958 34.4043H9.1084C8.76562 34.4043 8.66016 34.5361 8.66016 34.9053V38.623C8.66016 39.0186 8.76562 39.1504 9.1084 39.1504ZM34.6582 39.1504H38.5078C38.8506 39.1504 38.9824 39.0186 38.9824 38.623V34.9053C38.9824 34.5361 38.8506 34.4043 38.5078 34.4043H34.6582C34.3154 34.4043 34.21 34.5361 34.21 34.9053V38.623C34.21 39.0186 34.3154 39.1504 34.6582 39.1504ZM27.5918 46.1641H31.4414C31.7842 46.1641 31.916 46.0322 31.916 45.6104V41.8926C31.916 41.5234 31.7842 41.3916 31.4414 41.3916H27.5918C27.249 41.3916 27.1436 41.5234 27.1436 41.8926V45.6104C27.1436 46.0322 27.249 46.1641 27.5918 46.1641ZM41.5928 46.1641H45.4424C45.7852 46.1641 45.917 46.0322 45.917 45.6104V41.8926C45.917 41.5234 45.7852 41.3916 45.4424 41.3916H41.5928C41.25 41.3916 41.1445 41.5234 41.1445 41.8926V45.6104C41.1445 46.0322 41.25 46.1641 41.5928 46.1641Z" fill="#608EE1"/>
</svg>
